<svg width="640" height="480" xmlns="http://www.w3.org/2000/svg"><g><path d="M-130.01855718903244,-130.0205332506448L-134.5731466356665,183.46469968557358L-68.22068938985467,17.295228810980916Z" fill="#b12323" stroke="#b12323"/><path d="M-130.01855718903244,-130.0205332506448L-68.22068938985467,17.295228810980916L100.85196861997247,-45.03625304438174Z" fill="#a60013" stroke="#a60013"/><path d="M-130.01855718903244,-130.0205332506448L100.85196861997247,-45.03625304438174L272.657751403749,-126.47971825674176Z" fill="#af352a" stroke="#af352a"/><path d="M100.85196861997247,-45.03625304438174L-68.22068938985467,17.295228810980916L105.56602894328535,79.15164154954255Z" fill="#d64241" stroke="#d64241"/><path d="M100.85196861997247,-45.03625304438174L105.56602894328535,79.15164154954255L179.29483031854033,42.57633210159838Z" fill="#ec7160" stroke="#ec7160"/><path d="M100.85196861997247,-45.03625304438174L179.29483031854033,42.57633210159838L272.657751403749,-126.47971825674176Z" fill="#d5635f" stroke="#d5635f"/><path d="M272.657751403749,-126.47971825674176L179.29483031854033,42.57633210159838L329.4541146699339,80.03107711672783Z" fill="#e6888d" stroke="#e6888d"/><path d="M272.657751403749,-126.47971825674176L329.4541146699339,80.03107711672783L391.99991058558226,-119.10065171308815Z" fill="#c3767e" stroke="#c3767e"/><path d="M391.99991058558226,-119.10065171308815L329.4541146699339,80.03107711672783L584.6765196975321,-31.1450653988868Z" fill="#a5607e" stroke="#a5607e"/><path d="M391.99991058558226,-119.10065171308815L584.6765196975321,-31.1450653988868L729.3860104680061,-91.47726899944246Z" fill="#5a3356" stroke="#5a3356"/><path d="M584.6765196975321,-31.1450653988868L329.4541146699339,80.03107711672783L580.5250471830368,96.21536146849394Z" fill="#9f7f8e" stroke="#9f7f8e"/><path d="M584.6765196975321,-31.1450653988868L580.5250471830368,96.21536146849394L651.4009363856167,104.73349417559803Z" fill="#876380" stroke="#876380"/><path d="M584.6765196975321,-31.1450653988868L651.4009363856167,104.73349417559803L729.3860104680061,-91.47726899944246Z" fill="#68255f" stroke="#68255f"/><path d="M729.3860104680061,-91.47726899944246L651.4009363856167,104.73349417559803L831.7914931755513,25.4822429548949Z" fill="#6f1b59" stroke="#6f1b59"/><path d="M729.3860104680061,-91.47726899944246L831.7914931755513,25.4822429548949L838.580666212365,-65.40178237482905Z" fill="#590039" stroke="#590039"/><path d="M838.580666212365,-65.40178237482905L831.7914931755513,25.4822429548949L839.4289678148925,554.4344517309219Z" fill="#8080a3" stroke="#8080a3"/><path d="M-68.22068938985467,17.295228810980916L-134.5731466356665,183.46469968557358L27.370249908417463,191.30738851614296Z" fill="#ca7068" stroke="#ca7068"/><path d="M-68.22068938985467,17.295228810980916L27.370249908417463,191.30738851614296L105.56602894328535,79.15164154954255Z" fill="#de7162" stroke="#de7162"/><path d="M105.56602894328535,79.15164154954255L27.370249908417463,191.30738851614296L205.01180260442197,231.56444795429707Z" fill="#f4c4ae" stroke="#f4c4ae"/><path d="M105.56602894328535,79.15164154954255L205.01180260442197,231.56444795429707L179.29483031854033,42.57633210159838Z" fill="#fbc3a1" stroke="#fbc3a1"/><path d="M179.29483031854033,42.57633210159838L205.01180260442197,231.56444795429707L329.4541146699339,80.03107711672783Z" fill="#fddbc3" stroke="#fddbc3"/><path d="M329.4541146699339,80.03107711672783L205.01180260442197,231.56444795429707L382.3464532289654,255.0442392937839Z" fill="#f6f9f6" stroke="#f6f9f6"/><path d="M329.4541146699339,80.03107711672783L382.3464532289654,255.0442392937839L580.5250471830368,96.21536146849394Z" fill="#c6d8d8" stroke="#c6d8d8"/><path d="M580.5250471830368,96.21536146849394L382.3464532289654,255.0442392937839L524.9697047285736,279.30017687380314Z" fill="#a2cae1" stroke="#a2cae1"/><path d="M580.5250471830368,96.21536146849394L524.9697047285736,279.30017687380314L650.447111511603,198.43249537982047Z" fill="#8caed0" stroke="#8caed0"/><path d="M580.5250471830368,96.21536146849394L650.447111511603,198.43249537982047L651.4009363856167,104.73349417559803Z" fill="#8292af" stroke="#8292af"/><path d="M651.4009363856167,104.73349417559803L650.447111511603,198.43249537982047L803.3339201286435,260.516076721251Z" fill="#8089bc" stroke="#8089bc"/><path d="M651.4009363856167,104.73349417559803L803.3339201286435,260.516076721251L831.7914931755513,25.4822429548949Z" fill="#807096" stroke="#807096"/><path d="M831.7914931755513,25.4822429548949L803.3339201286435,260.516076721251L839.4289678148925,554.4344517309219Z" fill="#737dac" stroke="#737dac"/><path d="M-134.5731466356665,183.46469968557358L-100.13580551370978,692.8428403940052L-38.36346063762903,472.73261494003236Z" fill="#4d3161" stroke="#4d3161"/><path d="M-134.5731466356665,183.46469968557358L-38.36346063762903,472.73261494003236L-23.32227355800569,385.8186277002096Z" fill="#886680" stroke="#886680"/><path d="M-134.5731466356665,183.46469968557358L-23.32227355800569,385.8186277002096L27.370249908417463,191.30738851614296Z" fill="#cb808b" stroke="#cb808b"/><path d="M27.370249908417463,191.30738851614296L-23.32227355800569,385.8186277002096L64.37004793435335,324.0419692452997Z" fill="#c4919b" stroke="#c4919b"/><path d="M27.370249908417463,191.30738851614296L64.37004793435335,324.0419692452997L205.01180260442197,231.56444795429707Z" fill="#efbdb1" stroke="#efbdb1"/><path d="M205.01180260442197,231.56444795429707L64.37004793435335,324.0419692452997L203.3486804086715,389.557772828266Z" fill="#d6cfc8" stroke="#d6cfc8"/><path d="M205.01180260442197,231.56444795429707L203.3486804086715,389.557772828266L370.18755884841084,370.80346466973424Z" fill="#cae6f1" stroke="#cae6f1"/><path d="M205.01180260442197,231.56444795429707L370.18755884841084,370.80346466973424L382.3464532289654,255.0442392937839Z" fill="#e1f3fa" stroke="#e1f3fa"/><path d="M382.3464532289654,255.0442392937839L370.18755884841084,370.80346466973424L494.3142915330827,346.5690916031599Z" fill="#a2d8ef" stroke="#a2d8ef"/><path d="M382.3464532289654,255.0442392937839L494.3142915330827,346.5690916031599L524.9697047285736,279.30017687380314Z" fill="#9ccfe7" stroke="#9ccfe7"/><path d="M524.9697047285736,279.30017687380314L494.3142915330827,346.5690916031599L712.327673099935,334.16101986542344Z" fill="#66a6d4" stroke="#66a6d4"/><path d="M524.9697047285736,279.30017687380314L712.327673099935,334.16101986542344L650.447111511603,198.43249537982047Z" fill="#7c9fcc" stroke="#7c9fcc"/><path d="M650.447111511603,198.43249537982047L712.327673099935,334.16101986542344L803.3339201286435,260.516076721251Z" fill="#7d82bd" stroke="#7d82bd"/><path d="M803.3339201286435,260.516076721251L712.327673099935,334.16101986542344L782.0281058549881,355.7534677349031Z" fill="#5976b6" stroke="#5976b6"/><path d="M803.3339201286435,260.516076721251L782.0281058549881,355.7534677349031L839.4289678148925,554.4344517309219Z" fill="#224fa0" stroke="#224fa0"/><path d="M-23.32227355800569,385.8186277002096L-38.36346063762903,472.73261494003236L68.15535508096218,562.8366883099079Z" fill="#5b3270" stroke="#5b3270"/><path d="M-23.32227355800569,385.8186277002096L68.15535508096218,562.8366883099079L64.37004793435335,324.0419692452997Z" fill="#775c85" stroke="#775c85"/><path d="M64.37004793435335,324.0419692452997L68.15535508096218,562.8366883099079L203.3486804086715,389.557772828266Z" fill="#88819d" stroke="#88819d"/><path d="M203.3486804086715,389.557772828266L68.15535508096218,562.8366883099079L251.74470970407128,555.3208388015628Z" fill="#7c75a3" stroke="#7c75a3"/><path d="M203.3486804086715,389.557772828266L251.74470970407128,555.3208388015628L370.18755884841084,370.80346466973424Z" fill="#8bb0dc" stroke="#8bb0dc"/><path d="M370.18755884841084,370.80346466973424L251.74470970407128,555.3208388015628L429.0155702177435,574.7965606022626Z" fill="#6a8acc" stroke="#6a8acc"/><path d="M370.18755884841084,370.80346466973424L429.0155702177435,574.7965606022626L494.3142915330827,346.5690916031599Z" fill="#599cd4" stroke="#599cd4"/><path d="M494.3142915330827,346.5690916031599L429.0155702177435,574.7965606022626L523.8222169596702,553.0134386289865Z" fill="#2a6bba" stroke="#2a6bba"/><path d="M494.3142915330827,346.5690916031599L523.8222169596702,553.0134386289865L685.0826999265701,508.5658193193376Z" fill="#145bb2" stroke="#145bb2"/><path d="M494.3142915330827,346.5690916031599L685.0826999265701,508.5658193193376L712.327673099935,334.16101986542344Z" fill="#216cbb" stroke="#216cbb"/><path d="M712.327673099935,334.16101986542344L685.0826999265701,508.5658193193376L782.0281058549881,355.7534677349031Z" fill="#1e4caa" stroke="#1e4caa"/><path d="M782.0281058549881,355.7534677349031L685.0826999265701,508.5658193193376L839.4289678148925,554.4344517309219Z" fill="#022590" stroke="#022590"/><path d="M-38.36346063762903,472.73261494003236L-100.13580551370978,692.8428403940052L68.15535508096218,562.8366883099079Z" fill="#530050" stroke="#530050"/><path d="M68.15535508096218,562.8366883099079L-100.13580551370978,692.8428403940052L44.23226703889668,665.2450947649777Z" fill="#5a0e45" stroke="#5a0e45"/><path d="M68.15535508096218,562.8366883099079L44.23226703889668,665.2450947649777L251.74470970407128,555.3208388015628Z" fill="#764974" stroke="#764974"/><path d="M251.74470970407128,555.3208388015628L44.23226703889668,665.2450947649777L282.32226884923875,730.1429449114949Z" fill="#7d6686" stroke="#7d6686"/><path d="M251.74470970407128,555.3208388015628L282.32226884923875,730.1429449114949L327.70390852354467,646.1440936289728Z" fill="#7b7ba9" stroke="#7b7ba9"/><path d="M251.74470970407128,555.3208388015628L327.70390852354467,646.1440936289728L429.0155702177435,574.7965606022626Z" fill="#6e75b4" stroke="#6e75b4"/><path d="M429.0155702177435,574.7965606022626L327.70390852354467,646.1440936289728L486.49895469658077,637.2685318160802Z" fill="#4f66a5" stroke="#4f66a5"/><path d="M429.0155702177435,574.7965606022626L486.49895469658077,637.2685318160802L523.8222169596702,553.0134386289865Z" fill="#2c50a1" stroke="#2c50a1"/><path d="M523.8222169596702,553.0134386289865L486.49895469658077,637.2685318160802L689.1259493306279,697.7817604970187Z" fill="#113488" stroke="#113488"/><path d="M523.8222169596702,553.0134386289865L689.1259493306279,697.7817604970187L685.0826999265701,508.5658193193376Z" fill="#021f88" stroke="#021f88"/><path d="M685.0826999265701,508.5658193193376L689.1259493306279,697.7817604970187L839.4289678148925,554.4344517309219Z" fill="#000077" stroke="#000077"/><path d="M839.4289678148925,554.4344517309219L689.1259493306279,697.7817604970187L828.8233577180654,704.9086946994066Z" fill="#00005f" stroke="#00005f"/><path d="M-100.13580551370978,692.8428403940052L282.32226884923875,730.1429449114949L44.23226703889668,665.2450947649777Z" fill="#6c3248" stroke="#6c3248"/><path d="M282.32226884923875,730.1429449114949L828.8233577180654,704.9086946994066L689.1259493306279,697.7817604970187Z" fill="#09296d" stroke="#09296d"/><path d="M282.32226884923875,730.1429449114949L689.1259493306279,697.7817604970187L486.49895469658077,637.2685318160802Z" fill="#284e86" stroke="#284e86"/><path d="M282.32226884923875,730.1429449114949L486.49895469658077,637.2685318160802L327.70390852354467,646.1440936289728Z" fill="#64719d" stroke="#64719d"/></g></svg>